<?xml version="1.0" encoding="utf-8"?>
<!-- Generator: Adobe Illustrator 19.2.1, SVG Export Plug-In . SVG Version: 6.00 Build 0)  -->
<svg version="1.1" id="Layer_1" xmlns="http://www.w3.org/2000/svg" xmlns:xlink="http://www.w3.org/1999/xlink" x="0px" y="0px"
	 viewBox="0 0 274.7 44" style="enable-background:new 0 0 274.7 44;" xml:space="preserve">
<style type="text/css">
	.st0{fill:#333333;}
</style>
<path class="st0" d="M14.9,29.4v2c0,6.2,0.2,6.6,4.1,6.6c6.1,0,9.5-3,9.5-8.5c0-5.5-3.8-9.4-9-9.4c-3.8,0-4.5,0.8-4.6,5.2V29.4z
	 M17.9,5.9c-2.5,0-3,0.8-3,4.5c0,5.5,0.2,6,2.5,6c3.6,0,5.5-1.7,5.5-4.8C22.9,8,21,5.9,17.9,5.9 M41.3,31c0,5.3-3.4,9.4-9.1,10.8
	c-3.3,0.9-7.6,1.3-11.9,1.3H3.8c-2.8,0-3.7-0.5-3.7-2.2c0-1.1,0.6-1.8,2-2.2c1.2-0.4,1.6-0.6,1.8-1c0.3-0.6,0.4-1.4,0.5-4.2l0.1-3.9
	v-3.3V14.2c0-4.8-0.2-6.8-0.6-7.5c-0.4-0.5-0.7-0.6-2.1-1C0.6,5.4,0,4.8,0,3.8c0-2.4,1.7-2.7,13.2-2.7C19.8,1.1,24,1.6,27,2.7
	c3.8,1.5,6.6,5.2,6.6,8.9c0,3.3-1.5,5.3-5.1,6.9C36.5,19.8,41.3,24.5,41.3,31 M80.4,12.5c-0.3-3-0.3-3.3-0.3-3.9
	c0-1.6,0.4-2.4,1.8-2.7c1.5-0.4,1.9-0.9,1.9-2.2c0-1.3-0.7-1.8-2.5-1.8h-9c-1.6,0-2.4,0.6-2.4,1.9c0,1,0.5,1.6,1.9,2
	c2.1,0.7,2.3,1.4,2.7,7.5l0.7,13.2c0.1,1.4,0.1,2.5,0.1,3.6c0,5.8-3,8.5-9.4,8.5c-3.2,0-5.5-0.8-7.1-2.5c-1.2-1.4-1.7-3.2-1.7-6.6
	c0-1.2,0-2.5,0.1-3.7l0.7-13.8c0.2-5.1,0.4-5.5,2.7-6c1.4-0.2,2-0.9,2-2c0-1.7-0.8-2.2-3.3-2.2H46.9c-1.8,0-2.7,0.7-2.7,2.2
	c0,1.1,0.6,1.7,2,2.1c1.4,0.4,1.7,0.9,1.7,2.4c0,0.6-0.1,1.5-0.1,2.2l-1.2,15.6c-0.3,3.7-0.3,4.3-0.3,5c0,8.4,6,12.4,18.3,12.4
	c4.2,0,7.9-0.6,10.7-1.6c1.3-0.6,2.5-1.4,3.7-2.5c1.9-2,2.6-4.5,2.6-9.3c0-1.2-0.1-2.4-0.1-3.5L80.4,12.5z M101.5,20.7
	c0.1,4.8,1.2,6,5.5,6c6.6,0,10.7-3.6,10.7-9.3c0-6-4.5-10.7-10.2-10.7c-4.6,0-6.1,1.5-6.1,5.8L101.5,20.7z M126.3,36.2
	c1,1.2,2,1.9,3,2.4l1,0.4c1.1,0.4,1.6,1.1,1.6,2.1c0,1.5-0.9,2.2-2.9,2.2h-13.9c-1.7,0-2.7-0.7-2.7-2.1c0-0.9,0.5-1.7,1.4-2.1
	l0.9-0.3c0.4-0.2,0.6-0.4,0.6-0.7c0-0.4-0.2-0.8-0.9-1.6l-4.8-4.9c-1.8,0.2-2.5,0.3-4.1,0.3c-1.5,0-2.2-0.1-3.8-0.3
	c-0.1,1.1-0.2,1.7-0.2,3c0,3.2,0.3,4,1.4,4.3l1.3,0.2c1,0.2,1.7,1.1,1.7,2.1c0,1.5-1,2.1-3.2,2.1H90.4c-2.8,0-3.7-0.5-3.7-2.2
	c0-1.1,0.6-1.8,2-2.2c1.2-0.4,1.5-0.6,1.7-1c0.4-0.6,0.4-1.4,0.5-4.2l0.1-3.9v-3.3v-7.7v-3.2l-0.1-4c-0.1-2.9-0.2-3.7-0.5-4.2
	c-0.2-0.5-0.6-0.6-1.7-1.1c-1.4-0.4-2-1.1-2-2.2c0-1.6,0.9-2.2,3.6-2.2h12.5c8.8,0,14.2,1,18.9,3.7c5.3,3,8.3,7.6,8.3,12.6
	c0,5.6-3.2,9.2-9.9,11L126.3,36.2z M160.5,11.8c0-4,0.4-4.5,3.7-4.5c3.9,0,6.3,1.3,10.2,5.3c1.1,1.1,1.8,1.6,2.5,1.6
	c1,0,1.7-0.7,1.7-1.7c0-0.5-0.2-1.1-0.5-1.8l-4.3-8.8c-0.7-1.4-1.2-1.9-2.2-1.9c-0.4,0-0.7,0.1-1,0.3c-0.1,0.1-0.4,0.3-1,0.7
	c-1,0.7-2.1,0.9-4.6,0.9h-19.1c-1.9,0-2.6-0.2-3.7-1.1C141.6,0.2,141,0,140.4,0c-0.7,0-1.4,0.5-1.9,1.4l-5.2,9.1
	c-0.5,0.8-0.7,1.5-0.7,2.1c0,0.9,0.6,1.6,1.7,1.6c0.9,0,1.2-0.2,3-2c3.7-3.7,6.1-5,9.5-5c2.9,0,3.4,0.6,3.4,4v15.2l-0.1,3.3
	l-0.1,3.9c-0.1,2.8-0.2,3.6-0.5,4.2c-0.2,0.4-0.6,0.6-1.8,1c-1.4,0.4-2,1.2-2,2.2c0,1.7,0.9,2.2,3.7,2.2h11.9c2.7,0,3.7-0.5,3.7-2.1
	c0-1.1-0.6-1.8-2.1-2.3c-1.2-0.4-1.5-0.6-1.7-1c-0.3-0.6-0.4-1.4-0.5-4.2l-0.1-3.9l-0.1-3.3V11.8z M203.3,6.1
	c-6.4,0-10.6,7-10.6,17.6c0,9.5,3.8,14.8,10.7,14.8c6.7,0,10.7-5.3,10.7-13.9C214.1,13.7,209.6,6.1,203.3,6.1 M203.1,44
	c-14.5,0-23.1-7.1-23.1-19.3C180,11.6,190.3,1,203.3,1c12.8,0,23.3,10.3,23.3,22.9C226.6,36.4,217.7,44,203.1,44 M268.1,43.2h1.1
	c0.9-0.1,1.1-0.4,1.1-2V41c-0.1-0.6-0.1-1.2-0.1-1.9V18.7l0.1-3.2l0.1-4c0.1-2.9,0.2-3.6,0.5-4.2c0.2-0.4,0.6-0.6,1.8-1.1
	c1.4-0.4,2-1.1,2-2.2c0-1.6-0.9-2.2-3.7-2.2h-8.6c-1.9,0-2.7,0.5-2.7,1.9c0,1.2,0.4,1.6,1.9,2.1c1.9,0.6,2.3,1.5,2.3,4.4v5.7v1.5
	c0,1.5-0.1,1.8-0.6,1.8c-0.4,0-1-0.3-1.8-1.1L247.5,4.1c-2-1.9-2.5-2.2-4.7-2.2h-9.5c-2.7,0-3.7,0.6-3.7,2.2c0,1.1,0.6,1.8,2.1,2.2
	c1.2,0.4,1.5,0.6,1.7,1.1c0.3,0.5,0.4,1.3,0.5,4.2l0.1,4v3.2v7.7v3.3l-0.1,3.9c-0.1,2.8-0.1,3.6-0.5,4.2c-0.2,0.4-0.6,0.6-1.7,1
	c-1.4,0.4-2.1,1.2-2.1,2.2c0,1.7,0.9,2.2,3.7,2.2h8c2.7,0,3.7-0.5,3.7-2.1c0-1.1-0.6-1.8-2-2.3c-1.2-0.4-1.5-0.6-1.8-1
	c-0.3-0.6-0.4-1.4-0.5-4.2l-0.1-3.9l-0.1-3.3V18l0.1-2c0.1-1.4,0.3-1.8,0.8-1.8c0.3,0,0.9,0.4,1.5,1.1l18,19c2.4,2.5,2.9,3.8,3,6.8
	l0.1,1.2c0,0.9,0.3,1.1,1.9,1.1H268.1z"/>
</svg>
